<?xml version="1.0" encoding="UTF-8" standalone="no"?>
<!-- Created with Inkscape (http://www.inkscape.org/) -->

<svg
   xmlns:osb="http://www.openswatchbook.org/uri/2009/osb"
   xmlns:dc="http://purl.org/dc/elements/1.1/"
   xmlns:cc="http://creativecommons.org/ns#"
   xmlns:rdf="http://www.w3.org/1999/02/22-rdf-syntax-ns#"
   xmlns:svg="http://www.w3.org/2000/svg"
   xmlns="http://www.w3.org/2000/svg"
   xmlns:sodipodi="http://sodipodi.sourceforge.net/DTD/sodipodi-0.dtd"
   xmlns:inkscape="http://www.inkscape.org/namespaces/inkscape"
   width="210mm"
   height="297mm"
   viewBox="0 0 744.09448819 1052.3622047"
   id="svg2"
   version="1.1"
   inkscape:version="0.91 r13725"
   sodipodi:docname="logo.svg">
  <defs
     id="defs4">
    <linearGradient
       id="linearGradient4209"
       osb:paint="solid">
      <stop
         style="stop-color:#000000;stop-opacity:1;"
         offset="0"
         id="stop4211" />
    </linearGradient>
  </defs>
  <sodipodi:namedview
     id="base"
     pagecolor="#ffffff"
     bordercolor="#666666"
     borderopacity="1.0"
     inkscape:pageopacity="0.0"
     inkscape:pageshadow="2"
     inkscape:zoom="0.24748738"
     inkscape:cx="5425.4809"
     inkscape:cy="1152.0336"
     inkscape:document-units="px"
     inkscape:current-layer="layer1"
     showgrid="false"
     inkscape:window-width="1920"
     inkscape:window-height="1056"
     inkscape:window-x="0"
     inkscape:window-y="24"
     inkscape:window-maximized="1"
     showguides="true"
     inkscape:guide-bbox="true" />
  <metadata
     id="metadata7">
    <rdf:RDF>
      <cc:Work
         rdf:about="">
        <dc:format>image/svg+xml</dc:format>
        <dc:type
           rdf:resource="http://purl.org/dc/dcmitype/StillImage" />
        <dc:title />
      </cc:Work>
    </rdf:RDF>
  </metadata>
  <g
     inkscape:label="Layer 1"
     inkscape:groupmode="layer"
     id="layer1">
    <rect
       ry="0"
       y="-1068.9818"
       x="-2169.9456"
       height="1999.5775"
       width="24.577551"
       id="rect4212"
       style="fill:#ffffff;stroke:#000000;stroke-width:0.42245039;stroke-linejoin:round;stroke-miterlimit:4;stroke-dasharray:none" />
    <rect
       style="fill:#ffffff;stroke:#000000;stroke-width:0.42245039;stroke-linejoin:round;stroke-miterlimit:4;stroke-dasharray:none"
       id="rect4214"
       width="24.577551"
       height="1999.5775"
       x="-2416.5737"
       y="-1066.1246"
       ry="0" />
    <rect
       style="fill:#ffffff;stroke:#000000;stroke-width:0.13927485;stroke-linejoin:round;stroke-miterlimit:4;stroke-dasharray:none"
       id="rect4219"
       width="24.860727"
       height="214.86072"
       x="-3240.0872"
       y="761.59088"
       ry="0" />
    <rect
       ry="20.203051"
       y="-190.04483"
       x="1522.3562"
       height="999.00098"
       width="999.00098"
       id="rect4294"
       style="fill:#c2da9e;fill-opacity:0;stroke:#000000;stroke-width:1;stroke-linejoin:round;stroke-miterlimit:4;stroke-dasharray:none" />
    <path
       inkscape:connector-curvature="0"
       style="fill:#e9e5dc;fill-opacity:1;stroke:#000000;stroke-width:0.97999907;stroke-linejoin:round;stroke-miterlimit:4;stroke-dasharray:none"
       d="m 2343.5957,587.36133 -280.6582,194.92187 3.7754,16.68164 255.873,0 135.9121,-93.16796 -114.9023,-118.43555 z"
       id="path4473" />
    <path
       inkscape:connector-curvature="0"
       style="fill:#e9e5dc;fill-opacity:1;stroke:#000000;stroke-width:0.97999907;stroke-linejoin:round;stroke-miterlimit:4;stroke-dasharray:none"
       d="m 2476.0117,723.84961 -109.5762,75.11523 125.1329,0 c 10.9686,0 19.7988,-8.83019 19.7988,-19.79882 l 0,-18.87305 -35.3555,-36.44336 z"
       id="path4406" />
    <path
       inkscape:connector-curvature="0"
       style="fill:#e9e5dc;fill-opacity:1;stroke:#000000;stroke-width:0.97999907;stroke-linejoin:round;stroke-miterlimit:4;stroke-dasharray:none"
       d="m 1560.4766,494.36328 -28.1289,30.66797 0,254.13477 c 0,10.96863 8.8302,19.79882 19.7988,19.79882 l 221.6387,0 24.5625,-152.0039 -237.8711,-152.59766 z"
       id="path4404" />
    <path
       inkscape:connector-curvature="0"
       style="fill:#e9e5dc;fill-opacity:1;stroke:#000000;stroke-width:0.97999907;stroke-linejoin:round;stroke-miterlimit:4;stroke-dasharray:none"
       d="m 2045.3379,279.93164 -83.5469,55.41992 45.6504,201.71289 172.877,-118 -134.9805,-139.13281 z"
       id="path4467" />
    <path
       inkscape:connector-curvature="0"
       style="fill:#e9e5dc;fill-opacity:1;stroke:#000000;stroke-width:0.97999907;stroke-linejoin:round;stroke-miterlimit:4;stroke-dasharray:none"
       d="m 2197.8809,437.16406 -184.5411,125.96289 43.6856,193.03907 269.0547,-186.85938 -128.1992,-132.14258 z"
       id="path4402" />
    <path
       inkscape:connector-curvature="0"
       style="fill:#c2da9e;fill-opacity:1;stroke:#000000;stroke-width:0.97999907;stroke-linejoin:round;stroke-miterlimit:4;stroke-dasharray:none"
       d="m 1907.6172,207.3125 c -3.2527,0.35553 -6.5211,0.55048 -9.793,0.58398 -1.2015,-0.0381 -2.4022,-0.0981 -3.6015,-0.17968 l -95.5411,591.24804 242.8301,0 -133.8945,-591.65234 z"
       id="path4400" />
    <path
       inkscape:connector-curvature="0"
       style="fill:#e9e5dc;fill-opacity:1;stroke:#000000;stroke-width:0.97999907;stroke-linejoin:round;stroke-miterlimit:4;stroke-dasharray:none"
       d="m 1635.0938,141.32227 -102.7461,8.06445 0,339.28516 111.4687,-121.53321 -8.7226,-225.8164 z"
       id="path4398" />
    <path
       inkscape:connector-curvature="0"
       style="fill:#e9e5dc;fill-opacity:1;stroke:#000000;stroke-width:0.97999907;stroke-linejoin:round;stroke-miterlimit:4;stroke-dasharray:none"
       d="m 1800.4355,128.3457 -140.5488,11.03125 7.793,201.74219 154.4101,-168.35156 c -10.8381,-12.75116 -18.2858,-28.02947 -21.6543,-44.42188 z"
       id="path4459" />
    <path
       inkscape:connector-curvature="0"
       style="fill:#e9e5dc;fill-opacity:1;stroke:#000000;stroke-width:0.97999907;stroke-linejoin:round;stroke-miterlimit:4;stroke-dasharray:none"
       d="m 1956.6426,188.50977 c -7.6679,5.63716 -16.1048,10.1453 -25.0528,13.38671 l 24.3243,107.48243 71.791,-47.6211 -71.0625,-73.24804 z"
       id="path4457" />
    <path
       inkscape:connector-curvature="0"
       style="fill:#e9e5dc;fill-opacity:1;stroke:#000000;stroke-width:0.97999907;stroke-linejoin:round;stroke-miterlimit:4;stroke-dasharray:none"
       d="m 1840.1777,189.4082 -262.666,286.38086 225.1543,144.4375 67.2832,-416.38281 c -10.6598,-3.11696 -20.7227,-7.99623 -29.7715,-14.43555 z"
       id="path4396" />
    <path
       inkscape:connector-curvature="0"
       style="fill:#e9e5dc;fill-opacity:1;stroke:#000000;stroke-width:0.97999907;stroke-linejoin:round;stroke-miterlimit:4;stroke-dasharray:none"
       d="m 2101.1211,104.74609 -104.002,8.16211 c -0.9628,21.51554 -8.8792,42.13817 -22.5605,58.77149 l 68.1152,70.20898 58.4473,-137.14258 z"
       id="path4394" />
    <path
       inkscape:connector-curvature="0"
       style="fill:#e9e5dc;fill-opacity:1;stroke:#000000;stroke-width:0.97999907;stroke-linejoin:round;stroke-miterlimit:4;stroke-dasharray:none"
       d="m 2511.3672,72.546875 -161.5996,12.683594 -132.1504,336.982421 124.1465,127.96289 169.6035,-429.96484 0,-47.664065 z"
       id="path4451" />
    <path
       inkscape:connector-curvature="0"
       style="fill:#e9e5dc;fill-opacity:1;stroke:#000000;stroke-width:0.97999907;stroke-linejoin:round;stroke-miterlimit:4;stroke-dasharray:none"
       d="m 2511.3672,187.2832 -150.7949,382.28125 150.7949,155.43164 0,-537.71289 z"
       id="path4392" />
    <path
       inkscape:connector-curvature="0"
       style="fill:#e9e5dc;fill-opacity:1;stroke:#000000;stroke-width:0.97999907;stroke-linejoin:round;stroke-miterlimit:4;stroke-dasharray:none"
       d="m 2396.2656,-36.615234 -41.2461,96.779296 156.3477,-12.271484 0,-81.224609 -115.1016,-3.283203 z"
       id="path4390" />
    <path
       inkscape:connector-curvature="0"
       style="fill:#e9e5dc;fill-opacity:1;stroke:#000000;stroke-width:0.97999907;stroke-linejoin:round;stroke-miterlimit:4;stroke-dasharray:none"
       d="m 2056.3691,-46.306641 -82.8105,90.28711 c 10.8384,12.751717 18.2862,28.030735 21.6543,44.423828 L 2115.0488,79 l 52.0586,-122.148438 -110.7383,-3.158203 z"
       id="path4445" />
    <path
       inkscape:connector-curvature="0"
       style="fill:#e9e5dc;fill-opacity:1;stroke:#000000;stroke-width:0.97999907;stroke-linejoin:round;stroke-miterlimit:4;stroke-dasharray:none"
       d="m 2193.8145,-42.386719 -50.7969,119.191407 184.0351,-14.445313 42.5059,-99.736328 -175.7441,-5.009766 z"
       id="path4443" />
    <path
       inkscape:connector-curvature="0"
       style="fill:#e9e5dc;fill-opacity:1;stroke:#000000;stroke-width:0.97999907;stroke-linejoin:round;stroke-miterlimit:4;stroke-dasharray:none"
       d="m 2322.4951,87.10762 -193.8841,15.96054 c -21.9614,52.90393 -44.698,105.48501 -67.1559,158.17989 l 137.0039,141.21679 c 41.6625,-104.99238 81.7484,-210.61376 124.0361,-315.35722 z"
       id="path4388"
       sodipodi:nodetypes="ccccc" />
    <path
       inkscape:connector-curvature="0"
       style="fill:#e9e5dc;fill-opacity:1;stroke:#000000;stroke-width:0.97999907;stroke-linejoin:round;stroke-miterlimit:4;stroke-dasharray:none"
       d="m 1874.2441,-51.498047 13.7891,60.9335939 c 3.2521,-0.3548143 6.5198,-0.5490603 9.791,-0.5820313 1.2028,0.038092 2.4049,0.097997 3.6055,0.1796875 l 9.6113,-59.4824221 -36.7969,-1.048828 z"
       id="path4439" />
    <path
       inkscape:connector-curvature="0"
       style="fill:#e9e5dc;fill-opacity:1;stroke:#000000;stroke-width:0.97999907;stroke-linejoin:round;stroke-miterlimit:4;stroke-dasharray:none"
       d="m 1935.8223,-49.742188 -10.1231,62.648438 c 10.6605,3.116757 20.724,7.996028 29.7735,14.435547 l 68.3984,-74.574219 -88.0488,-2.509766 z"
       id="path4386" />
    <path
       inkscape:connector-curvature="0"
       style="fill:#e9e5dc;fill-opacity:1;stroke:#000000;stroke-width:0.97999907;stroke-linejoin:round;stroke-miterlimit:4;stroke-dasharray:none"
       d="m 1532.3477,-61.248047 0,185.980467 104.4257,-8.19531 62.9141,-173.013672 -167.3398,-4.771485 z"
       id="path4435" />
    <path
       inkscape:connector-curvature="0"
       style="fill:#e9e5dc;fill-opacity:1;stroke:#000000;stroke-width:0.97999907;stroke-linejoin:round;stroke-miterlimit:4;stroke-dasharray:none"
       d="m 1754.7344,-54.90625 82.1406,84.667969 c 8.2274,-6.359112 17.4005,-11.389545 27.1855,-14.908203 l -15.1796,-67.074219 -94.1465,-2.685547 z"
       id="path4433" />
    <path
       inkscape:connector-curvature="0"
       style="fill:#e9e5dc;fill-opacity:1;stroke:#000000;stroke-width:0.97999907;stroke-linejoin:round;stroke-miterlimit:4;stroke-dasharray:none"
       d="m 1724.1855,-51.097656 -60.1816,165.498046 134.5254,-10.55859 c 0.9466,-20.612903 8.277,-40.421897 20.9766,-56.68555 l -95.3204,-98.253906 z"
       id="path4384" />
    <path
       inkscape:connector-curvature="0"
       style="fill:#e9e5dc;fill-opacity:1;stroke:#000000;stroke-width:0.97999907;stroke-linejoin:round;stroke-miterlimit:4;stroke-dasharray:none"
       d="m 1532.3477,-145.41016 0,59.488285 c 306.2738,8.718259 646.6786,18.411333 979.0195,27.917969 l 0,-55.712894 -979.0195,-31.69336 z"
       id="path4382" />
    <path
       inkscape:connector-curvature="0"
       style="fill:#b0d1ff;fill-opacity:1;stroke:#000000;stroke-width:0.97999907;stroke-linejoin:round;stroke-miterlimit:4;stroke-dasharray:none"
       d="m 1532.3477,-145.41016 979.0195,31.69336 0,-46.53906 c 0,-10.96863 -8.8302,-19.79883 -19.7988,-19.79883 l -939.4219,0 c -10.9686,0 -19.7988,8.8302 -19.7988,19.79883 l 0,14.8457 z"
       id="rect4296" />
    <circle
       style="fill:#e9e5dc;fill-opacity:1;stroke:#000000;stroke-width:0.98100001;stroke-miterlimit:4;stroke-dasharray:none;stroke-opacity:1"
       id="path4477"
       cx="1898.3662"
       cy="109.55962"
       r="74.644737" />
    <path
       style="fill:#ff2a2a;fill-opacity:1;stroke:#000000;stroke-width:0;stroke-miterlimit:4;stroke-dasharray:none;stroke-opacity:1"
       d="M 6553.4609 -975.86719 C 6421.0057 -975.86709 6293.9762 -923.24809 6200.3164 -829.58789 C 6106.6566 -735.92779 6054.0387 -608.89859 6054.0391 -476.44336 L 7052.8828 -476.44336 C 7052.8832 -608.8986 7000.2653 -735.92769 6906.6055 -829.58789 C 6812.9457 -923.24809 6685.9161 -975.86709 6553.4609 -975.86719 z M 6053.9297 -475.39844 L 6053.9297 523.66602 L 7052.9922 523.66602 L 7052.9922 -475.39844 L 6053.9297 -475.39844 z M 7054.0391 -475.28906 L 7054.0391 523.55664 C 7186.4943 523.5565 7313.5238 470.93947 7407.1836 377.2793 C 7500.8434 283.61914 7553.4613 156.58801 7553.4609 24.132812 C 7553.4608 -108.32206 7500.8433 -235.35198 7407.1836 -329.01172 C 7313.5239 -422.67146 7186.494 -475.28886 7054.0391 -475.28906 z "
       id="path4619" />
  </g>
</svg>
